<svg xmlns="http://www.w3.org/2000/svg" viewBox="0 0 200 200" width="200" height="200">
  <!-- 背景 -->
  <rect width="200" height="200" rx="10" fill="#1a1b46" />
  
  <!-- 月亮 -->
  <circle cx="150" cy="50" r="20" fill="#e1e1ff" />
  <circle cx="140" cy="45" r="5" fill="#1a1b46" />
  
  <!-- 星星 -->
  <g fill="#ffffff" opacity="0.8">
    <circle cx="30" cy="40" r="1" />
    <circle cx="60" cy="30" r="1.2" />
    <circle cx="100" cy="25" r="1" />
    <circle cx="180" cy="80" r="1.2" />
    <circle cx="120" cy="60" r="1" />
  </g>
  
  <!-- 树木 -->
  <g>
    <!-- 大树 -->
    <path d="M70,180 L70,130 L60,130 L80,110 L70,110 L90,90 L80,90 L100,70 L120,90 L110,90 L130,110 L120,110 L140,130 L130,130 L130,180 Z" fill="#3b3e8c" />
    
    <!-- 小树1 -->
    <path d="M40,180 L40,160 L35,160 L45,145 L40,145 L50,130 L60,145 L55,145 L65,160 L60,160 L60,180 Z" fill="#6264b7" />
    
    <!-- 小树2 -->
    <path d="M160,180 L160,160 L155,160 L165,145 L160,145 L170,130 L180,145 L175,145 L185,160 L180,160 L180,180 Z" fill="#6264b7" />
    
    <!-- 草地轮廓 -->
    <path d="M0,180 C20,170 40,175 60,165 C80,160 100,170 120,165 C140,160 160,175 180,165 C200,170 200,180 200,180 L0,180 Z" fill="#3b3e8c" opacity="0.5" />
  </g>
  
  <!-- 动物轮廓 -->
  <circle cx="30" cy="165" r="3" fill="#8093f1" />
  <circle cx="35" cy="162" r="1" fill="#e1e1ff" />
  
  <!-- 萤火虫 -->
  <g fill="#8093f1" opacity="0.7">
    <circle cx="50" cy="100" r="1" />
    <circle cx="150" cy="120" r="1" />
    <circle cx="110" cy="140" r="1" />
    <circle cx="80" cy="110" r="1" />
    <circle cx="170" cy="90" r="1" />
  </g>
</svg> 