<svg xmlns="http://www.w3.org/2000/svg" viewBox="0 0 200 200" width="200" height="200">
  <!-- 背景 -->
  <rect width="200" height="200" rx="10" fill="#1a1b46" />
  
  <!-- 月亮倒影 -->
  <ellipse cx="100" cy="190" rx="70" ry="15" fill="#e1e1ff" opacity="0.1" />
  
  <!-- 月亮 -->
  <circle cx="100" cy="50" r="25" fill="#e1e1ff" />
  <circle cx="90" cy="45" r="7" fill="#1a1b46" />
  
  <!-- 星星 -->
  <g fill="#ffffff" opacity="0.8">
    <circle cx="30" cy="30" r="1.5" />
    <circle cx="60" cy="40" r="1" />
    <circle cx="160" cy="35" r="1.2" />
    <circle cx="180" cy="60" r="1" />
    <circle cx="40" cy="70" r="0.8" />
    <circle cx="140" cy="25" r="1.5" />
  </g>
  
  <!-- 海浪 -->
  <g>
    <!-- 海平面 -->
    <rect x="0" y="100" width="200" height="80" fill="#3b3e8c" opacity="0.6" />
    
    <!-- 波浪 -->
    <path d="M0,100 C20,90 40,110 60,100 C80,90 100,110 120,100 C140,90 160,110 180,100 C200,90 200,100 200,100 L200,120 C180,130 160,110 140,120 C120,130 100,110 80,120 C60,130 40,110 20,120 C0,130 0,120 0,120 Z" fill="#6264b7" opacity="0.7" />
    
    <path d="M0,120 C20,110 40,130 60,120 C80,110 100,130 120,120 C140,110 160,130 180,120 C200,110 200,120 200,120 L200,140 C180,150 160,130 140,140 C120,150 100,130 80,140 C60,150 40,130 20,140 C0,150 0,140 0,140 Z" fill="#8093f1" opacity="0.5" />
    
    <path d="M0,140 C20,130 40,150 60,140 C80,130 100,150 120,140 C140,130 160,150 180,140 C200,130 200,140 200,140 L200,180 C180,170 160,180 140,175 C120,180 100,170 80,175 C60,180 40,170 20,175 C0,180 0,180 0,180 Z" fill="#8093f1" opacity="0.3" />
  </g>
  
  <!-- 小船 -->
  <path d="M130,90 L150,90 L140,80 Z" fill="#e1e1ff" />
  <path d="M125,90 L155,90 L145,95 L135,95 Z" fill="#6264b7" />
  
  <!-- 海鸟 -->
  <path d="M40,80 C42,78 44,80 46,78 C48,80 50,78 52,80" fill="none" stroke="#e1e1ff" stroke-width="1" />
  <path d="M60,70 C62,68 64,70 66,68 C68,70 70,68 72,70" fill="none" stroke="#e1e1ff" stroke-width="1" />
</svg> 