<?xml version="1.0" encoding="UTF-8"?>
<svg width="200" height="200" viewBox="0 0 200 200" fill="none" xmlns="http://www.w3.org/2000/svg">
  <!-- 背景圆形 -->
  <circle cx="100" cy="100" r="90" fill="#2F3368" stroke="#8C52FF" stroke-width="2"/>
  
  <!-- 书本和故事元素 -->
  <g transform="translate(50, 60)">
    <!-- 书本底部 -->
    <path d="M20 20 L80 20 L80 80 L20 80 C10 80 10 20 20 20 Z" fill="#2F3368" stroke="#8C52FF" stroke-width="2"/>
    
    <!-- 书本装饰线 -->
    <path d="M30 30 L70 30" stroke="#8C52FF" stroke-width="1" opacity="0.7"/>
    <path d="M30 40 L70 40" stroke="#8C52FF" stroke-width="1" opacity="0.7"/>
    <path d="M30 50 L70 50" stroke="#8C52FF" stroke-width="1" opacity="0.7"/>
    <path d="M30 60 L70 60" stroke="#8C52FF" stroke-width="1" opacity="0.7"/>
    <path d="M30 70 L70 70" stroke="#8C52FF" stroke-width="1" opacity="0.7"/>
    
    <!-- 书签 -->
    <path d="M65 15 L65 30 L60 25 L55 30 L55 15 Z" fill="#8C52FF"/>
    
    <!-- 星星 - 代表想象力 -->
    <path d="M90 30 L93 40 L100 40 L95 45 L97 55 L90 50 L83 55 L85 45 L80 40 L87 40 Z" fill="#8C52FF" opacity="0.8"/>
    <path d="M25 10 L27 17 L32 17 L28 20 L30 27 L25 23 L20 27 L22 20 L18 17 L23 17 Z" fill="#8C52FF" opacity="0.6"/>
  </g>
</svg> 