<?xml version="1.0" encoding="UTF-8"?>
<svg width="200" height="200" viewBox="0 0 200 200" fill="none" xmlns="http://www.w3.org/2000/svg">
  <!-- 背景圆形 -->
  <circle cx="100" cy="100" r="90" fill="#2F3368" stroke="#8C52FF" stroke-width="2"/>
  
  <!-- 波形图案 - 白噪音 -->
  <g transform="translate(40, 60)">
    <!-- 多条不规则线条代表噪音 -->
    <path d="M0 20 L10 40 L20 10 L30 50 L40 15 L50 35 L60 5 L70 45 L80 20 L90 30 L100 10 L110 40 L120 25" 
          stroke="#8C52FF" stroke-width="2" fill="none"/>
    
    <path d="M0 30 L10 50 L20 20 L30 60 L40 25 L50 45 L60 15 L70 55 L80 30 L90 40 L100 20 L110 50 L120 35" 
          stroke="#8C52FF" stroke-width="2" fill="none" opacity="0.7"/>
    
    <path d="M0 40 L10 60 L20 30 L30 70 L40 35 L50 55 L60 25 L70 65 L80 40 L90 50 L100 30 L110 60 L120 45" 
          stroke="#8C52FF" stroke-width="2" fill="none" opacity="0.4"/>
    
    <!-- 声音波纹装饰 -->
    <circle cx="60" cy="40" r="25" stroke="#8C52FF" stroke-width="1" fill="none" opacity="0.3"/>
    <circle cx="60" cy="40" r="40" stroke="#8C52FF" stroke-width="1" fill="none" opacity="0.2"/>
    <circle cx="60" cy="40" r="55" stroke="#8C52FF" stroke-width="1" fill="none" opacity="0.1"/>
  </g>
</svg> 